<svg width="26" height="21" viewBox="0 0 26 21" fill="none" xmlns="http://www.w3.org/2000/svg">
<path d="M3 20.2793C2.3125 20.2793 1.72396 20.0345 1.23438 19.5449C0.744792 19.0553 0.5 18.4668 0.5 17.7793V2.7793C0.5 2.0918 0.744792 1.50326 1.23438 1.01367C1.72396 0.524089 2.3125 0.279297 3 0.279297H23C23.6875 0.279297 24.276 0.524089 24.7656 1.01367C25.2552 1.50326 25.5 2.0918 25.5 2.7793V17.7793C25.5 18.4668 25.2552 19.0553 24.7656 19.5449C24.276 20.0345 23.6875 20.2793 23 20.2793H3ZM13 11.5293L3 5.2793V17.7793H23V5.2793L13 11.5293ZM13 9.0293L23 2.7793H3L13 9.0293ZM3 5.2793V2.7793V17.7793V5.2793Z" fill="#0C2A64"/>
</svg>
